PathFileType	4	(X/Y/Z)	/Users/itak/Documents/Research/Walk-IL/dataset/trc/00082_00006.trc
DataRate	CameraRate	NumFrames	NumMarkers	Units	OrigDataRate	OrigDataStartFrame	OrigNumFrames
100.000000	100.000000	4	53	mm	100.000000	375	500
Frame#	Time	RPSI			LPSI			L3			STRN			T10			C7			CLAV			RBAK			LBAK			LSHO			LUPA			LAEL			LAOL			LWTS			LWPS			LFRA			LIFD			LHPS			LHTS			RSHO			RUPA			RAEL			RAOL			RWTS			RWPS			RFRA			RIFD			RHTS			RHPS			RBHD			LFHD			RFHD			LBHD			LHIP			RHIP			RASI			LASI			LKNE			LTHI			LANK			LTIP			LTOE			LMT1			LMT5			LHEE			RKNE			RTHI			RANK			RTIP			RTOE			RMT1			RMT5			RHEE			
		X1	Y1	Z1	X2	Y2	Z2	X3	Y3	Z3	X4	Y4	Z4	X5	Y5	Z5	X6	Y6	Z6	X7	Y7	Z7	X8	Y8	Z8	X9	Y9	Z9	X10	Y10	Z10	X11	Y11	Z11	X12	Y12	Z12	X13	Y13	Z13	X14	Y14	Z14	X15	Y15	Z15	X16	Y16	Z16	X17	Y17	Z17	X18	Y18	Z18	X19	Y19	Z19	X20	Y20	Z20	X21	Y21	Z21	X22	Y22	Z22	X23	Y23	Z23	X24	Y24	Z24	X25	Y25	Z25	X26	Y26	Z26	X27	Y27	Z27	X28	Y28	Z28	X29	Y29	Z29	X30	Y30	Z30	X31	Y31	Z31	X32	Y32	Z32	X33	Y33	Z33	X34	Y34	Z34	X35	Y35	Z35	X36	Y36	Z36	X37	Y37	Z37	X38	Y38	Z38	X39	Y39	Z39	X40	Y40	Z40	X41	Y41	Z41	X42	Y42	Z42	X43	Y43	Z43	X44	Y44	Z44	X45	Y45	Z45	X46	Y46	Z46	X47	Y47	Z47	X48	Y48	Z48	X49	Y49	Z49	X50	Y50	Z50	X51	Y51	Z51	X52	Y52	Z52	X53	Y53	Z53	

376	3.75	455.6150817871094	990.0388793945312	-214.5761871337891	284.3799438476562	987.5498657226562	-248.3052520751953	360.1976318359375	1048.921997070312	-231.5698699951172	439.9387512207031	1250.498901367188	-470.1239318847656	344.7672119140625	1180.200561523438	-218.0430145263672	369.2926635742188	1448.453979492188	-269.4296875	431.1470947265625	1364.292724609375	-438.9539794921875	411.9993591308594	1306.63671875	-189.1332244873047	265.8916931152344	1413.45703125	-283.8164672851562	232.4397430419922	1421.64990234375	-404.6333923339844	149.0140380859375	1298.529418945312	-416.3369140625	127.8525848388672	1084.763427734375	-450.0155639648438	183.6206665039062	1064.958984375	-360.2812805175781	270.9343566894531	883.6787719726562	-542.431396484375	194.9767761230469	849.7891235351562	-518.972900390625	148.8053436279297	981.0745239257812	-488.2549133300781	334.2539367675781	710.1425170898438	-569.3628540039062	230.633056640625	781.3397827148438	-557.5402221679688	294.4396057128906	807.90478515625	-576.403564453125	551.8090209960938	1409.290405273438	-267.0121154785156	601.9303588867188	1341.791381835938	-230.5390014648438	621.5222778320312	1089.118896484375	-165.0396728515625	546.5504150390625	1057.58349609375	-224.2207489013672	662.1472778320312	827.6590576171875	-289.3502807617188	678.2357177734375	820.5689697265625	-203.6377105712891	638.7866821289062	1008.570495605469	-165.6440734863281	642.4348754882812	642.6402587890625	-280.9214477539062	672.5404052734375	725.6272583007812	-301.8177795410156	699.0008544921875	729.6956787109375	-229.3005828857422	343.0643005371094	1630.323364257812	-308.2509155273438	498.31103515625	1664.8935546875	-453.8656311035156	374.6687927246094	1671.099487304688	-479.3016052246094	478.5938720703125	1616.405639648438	-289.8540344238281	209.8079681396484	928.912353515625	-369.7950134277344	545.2776489257812	922.6232299804688	-268.3086853027344	552.3248291015625	947.330322265625	-392.1748962402344	293.1019897460938	938.706298828125	-464.4885864257812	327.5180969238281	460.4637451171875	-371.2292785644531	268.3196411132812	601.166748046875	-376.864501953125	231.1340026855469	51.62446975708008	-157.689208984375	269.7398681640625	238.1365051269531	-262.8540649414062	371.9741516113281	37.97632598876953	-305.6982727050781	376.36376953125	37.49763488769531	-234.2474822998047	267.8657531738281	37.11272048950195	-259.6441955566406	254.0821990966797	63.39391708374023	-67.84435272216797	597.51513671875	518.392333984375	-476.7073364257812	591.401123046875	772.3743896484375	-389.0740661621094	657.5983276367188	36.8645133972168	-549.638916015625	618.9658203125	398.510986328125	-498.3467712402344	626.7406005859375	106.8184967041016	-745.2025146484375	585.64892578125	83.34718322753906	-695.14453125	678.6148681640625	76.82716369628906	-661.9046630859375	597.4406127929688	24.26985168457031	-510.7577819824219	
377	3.76	461.3897705078125	989.351806640625	-222.0501861572266	289.8680725097656	986.8612670898438	-254.5921783447266	365.8329467773438	1048.156982421875	-238.3220825195312	444.4446105957031	1249.91064453125	-477.1212768554688	350.4501953125	1179.456787109375	-224.6434478759766	374.6500549316406	1447.799194335938	-275.9296569824219	435.7850952148438	1363.652954101562	-445.81298828125	417.9075927734375	1305.878051757812	-195.9330902099609	271.2334899902344	1412.738037109375	-289.8490905761719	237.1824645996094	1420.893676757812	-410.5941467285156	153.9090118408203	1297.706420898438	-421.8738403320312	132.5013580322266	1083.975463867188	-455.3828125	188.7928466796875	1064.145751953125	-365.9787292480469	273.8902282714844	882.0031127929688	-548.4103393554688	198.061279296875	848.5343017578125	-524.1563110351562	152.6766357421875	980.1194458007812	-493.5010375976562	336.2348022460938	708.2066650390625	-575.5802001953125	233.0137481689453	779.8361206054688	-562.9428100585938	296.8424072265625	806.126708984375	-582.4774780273438	557.3408203125	1408.5927734375	-274.4202270507812	607.6483154296875	1341.083251953125	-238.2581176757812	627.635498046875	1088.377197265625	-172.9186401367188	552.2567138671875	1056.826538085938	-231.6381988525391	667.45068359375	826.8799438476562	-297.2986450195312	683.993896484375	819.843505859375	-211.647705078125	644.8630981445312	1007.857482910156	-173.6028289794922	647.6753540039062	641.899658203125	-288.6027221679688	677.7885131835938	724.9760131835938	-309.7984924316406	704.54931640625	728.935302734375	-237.3783264160156	347.9771728515625	1629.532104492188	-314.3957824707031	502.4320068359375	1664.597045898438	-460.7259521484375	378.6284484863281	1670.573974609375	-485.5671997070312	483.5252990722656	1615.86474609375	-296.6624145507812	214.5402221679688	928.2415771484375	-375.3699645996094	550.6898193359375	921.96484375	-276.5542907714844	556.8991088867188	946.826416015625	-400.39794921875	297.1351013183594	937.9926147460938	-470.7447814941406	330.5048828125	459.4045715332031	-376.3692932128906	272.0400695800781	600.4641723632812	-381.9031066894531	232.0267028808594	53.21590423583984	-157.6586151123047	271.1498107910156	238.5992889404297	-265.254150390625	371.8113098144531	37.94935989379883	-306.0024719238281	376.4581298828125	37.64737701416016	-234.7075958251953	267.8833312988281	37.35905075073242	-259.6938171386719	255.2269897460938	66.28059387207031	-68.10118865966797	599.6728515625	517.8467407226562	-486.0055236816406	595.3198852539062	771.8157958984375	-398.2225646972656	658.0534057617188	35.99991989135742	-552.1337890625	620.6649169921875	397.4574584960938	-507.1194152832031	625.03564453125	98.96212768554688	-749.8019409179688	584.5018310546875	77.23359680175781	-698.724853515625	677.67138671875	71.90172576904297	-665.8672485351562	598.2531127929688	24.94492149353027	-512.3706665039062	
378	3.77	467.1357727050781	989.0220947265625	-229.6318511962891	295.380859375	986.3306884765625	-260.9086608886719	371.4842834472656	1047.566772460938	-245.2598571777344	448.9576110839844	1249.53369140625	-484.1646423339844	356.1482543945312	1178.917236328125	-231.2557220458984	379.9798583984375	1447.351440429688	-282.4609375	440.4383850097656	1363.233520507812	-452.7041015625	423.8081359863281	1305.306274414062	-202.7618865966797	276.5509643554688	1412.220703125	-295.9095153808594	241.9326934814453	1420.335205078125	-416.5956726074219	158.8342590332031	1297.062255859375	-427.461669921875	137.2056579589844	1083.361694335938	-460.8180541992188	193.9869689941406	1063.530517578125	-371.7250366210938	276.7416076660156	880.391357421875	-554.35693359375	201.0771331787109	847.3863525390625	-529.2677612304688	156.53759765625	979.3134155273438	-498.7494201660156	338.0267639160156	706.31640625	-581.7444458007812	235.2451324462891	778.4180297851562	-568.2565307617188	299.0552673339844	804.3868408203125	-588.49609375	562.8734741210938	1408.074462890625	-281.8350219726562	613.3551635742188	1340.534912109375	-246.0035552978516	633.7556762695312	1087.770874023438	-180.8878326416016	557.9788208007812	1056.216918945312	-239.1391754150391	672.7725219726562	826.2941284179688	-305.3772583007812	689.765625	819.2696533203125	-219.7841796875	650.947021484375	1007.287109375	-181.6669616699219	652.9459228515625	641.3449096679688	-296.5253601074219	683.0934448242188	724.5006713867188	-317.9451904296875	710.1260986328125	728.3314208984375	-245.6351013183594	352.8899230957031	1628.970458984375	-320.5496520996094	506.551513671875	1664.524047851562	-467.6094970703125	382.582763671875	1670.25732421875	-491.8416442871094	488.464111328125	1615.563842773438	-303.5001831054688	219.4898681640625	927.6459350585938	-380.9752197265625	556.156494140625	921.67822265625	-284.8284606933594	561.4693603515625	946.6146240234375	-408.6662292480469	301.1856079101562	937.4248657226562	-477.0505981445312	333.6750183105469	458.412841796875	-381.967529296875	275.8294982910156	599.8601684570312	-387.3157348632812	232.8492736816406	55.1523551940918	-157.8133544921875	272.6426086425781	239.2881622314453	-267.9596557617188	371.5989074707031	37.9317626953125	-306.3117370605469	376.536376953125	37.85250091552734	-235.2200012207031	267.8682556152344	37.63613510131836	-259.8348999023438	256.3707885742188	69.63252258300781	-68.57890319824219	601.7474365234375	517.542724609375	-495.0577697753906	599.1978149414062	771.54833984375	-407.4009399414062	658.4971923828125	35.47307205200195	-554.2901000976562	622.3793334960938	396.6834411621094	-515.677734375	623.4110717773438	91.00248718261719	-754.1544189453125	583.4557495117188	71.24788665771484	-702.0225830078125	676.7798461914062	67.11003112792969	-669.4889526367188	599.0638427734375	25.99639129638672	-513.744873046875	
379	3.78	472.817138671875	989.0994262695312	-237.2687835693359	300.8929138183594	985.990966796875	-267.2467346191406	377.1210327148438	1047.180297851562	-252.3889617919922	453.4577026367188	1249.400390625	-491.2443542480469	361.8370361328125	1178.621948242188	-237.8613128662109	385.2834777832031	1447.13720703125	-289.0120239257812	445.0895385742188	1363.066040039062	-459.6167907714844	429.6851806640625	1304.955200195312	-209.6130676269531	281.8320922851562	1411.942016601562	-301.9884338378906	246.6864013671875	1420.019897460938	-422.6205139160156	163.7763366699219	1296.639892578125	-433.0925598144531	141.9777984619141	1082.966552734375	-466.315185546875	199.2156982421875	1063.169555664062	-377.5197448730469	279.4793701171875	878.8720092773438	-560.2509155273438	204.0242919921875	846.3812255859375	-534.285888671875	160.3917541503906	978.7008056640625	-503.9898681640625	339.5950317382812	704.4915771484375	-587.8272094726562	237.3085021972656	777.1207885742188	-573.454833984375	301.0431518554688	802.710205078125	-594.4335327148438	568.387939453125	1407.772583007812	-289.2568969726562	619.03662109375	1340.188232421875	-253.7762908935547	639.8555297851562	1087.345092773438	-188.9599304199219	563.7005615234375	1055.798950195312	-246.7504577636719	678.110595703125	825.9413452148438	-313.5737915039062	695.5391235351562	818.8887329101562	-228.0364990234375	657.0071411132812	1006.9033203125	-189.8422241210938	658.251708984375	641.00439453125	-304.6685180664062	688.4022827148438	724.1741943359375	-326.1825256347656	715.7294921875	727.93115234375	-254.0429992675781	357.7916259765625	1628.6669921875	-326.7107849121094	510.6613464355469	1664.688842773438	-474.5097351074219	386.5331420898438	1670.175659179688	-498.1242370605469	493.4055480957031	1615.52490234375	-310.36181640625	224.6457977294922	927.1583862304688	-386.6222534179688	561.6253051757812	921.8152465820312	-293.0753784179688	566.036865234375	946.748046875	-416.9442138671875	305.2476501464844	937.0410766601562	-483.3996887207031	337.018798828125	457.5091552734375	-388.0816650390625	279.6926879882812	599.3768920898438	-393.1390075683594	233.6265258789062	57.46991729736328	-158.1733551025391	274.2386169433594	240.2375640869141	-270.9994506835938	371.3549194335938	37.92095184326172	-306.6010131835938	376.6186218261719	38.12496948242188	-235.7717590332031	267.8342590332031	37.94750213623047	-260.06884765625	257.5495300292969	73.50415802001953	-69.31108093261719	603.8497314453125	517.5475463867188	-503.8763122558594	603.0394897460938	771.6390991210938	-416.5363464355469	658.9441528320312	35.2120361328125	-556.1575317382812	624.18701171875	396.2080383300781	-523.9973754882812	622.0516967773438	83.28536987304688	-758.2173461914062	582.6364135742188	65.67559051513672	-705.0313110351562	676.0535888671875	62.63889694213867	-672.7255859375	599.841552734375	27.2810173034668	-514.9673461914062	
